<svg xmlns="http://www.w3.org/2000/svg" xmlns:xlink="http://www.w3.org/1999/xlink" viewBox="0 0 24 24"><defs><style>.cls-1,.cls-2,.cls-3{fill:none;}.cls-2,.cls-4,.cls-5{clip-rule:evenodd;}.cls-11,.cls-3,.cls-8{fill-rule:evenodd;}.cls-10,.cls-4,.cls-8{fill:#eaecf0;}.cls-11,.cls-13,.cls-5{fill:#96a4b6;}.cls-6{clip-path:url(#clip-path);}.cls-7{clip-path:url(#clip-path-2);}.cls-9{clip-path:url(#clip-path-3);}.cls-12{clip-path:url(#clip-path-4);}.cls-14{clip-path:url(#clip-path-5);}.cls-15{clip-path:url(#clip-path-6);}.cls-16{clip-path:url(#clip-path-7);}.cls-17{clip-path:url(#clip-path-9);}.cls-18{clip-path:url(#clip-path-11);}.cls-19{clip-path:url(#clip-path-12);}.cls-20{clip-path:url(#clip-path-13);}.cls-21{clip-path:url(#clip-path-14);}.cls-22{clip-path:url(#clip-path-15);}.cls-23{clip-path:url(#clip-path-16);}.cls-24{clip-path:url(#clip-path-17);}.cls-25{clip-path:url(#clip-path-18);}.cls-26{clip-path:url(#clip-path-19);}.cls-27{clip-path:url(#clip-path-20);}.cls-28{clip-path:url(#clip-path-21);}.cls-29{clip-path:url(#clip-path-22);}.cls-30{clip-path:url(#clip-path-23);}.cls-31{clip-path:url(#clip-path-24);}.cls-32{clip-path:url(#clip-path-25);}.cls-33{clip-path:url(#clip-path-26);}.cls-34{clip-path:url(#clip-path-27);}.cls-35{clip-path:url(#clip-path-28);}.cls-36{clip-path:url(#clip-path-29);}.cls-37{clip-path:url(#clip-path-30);}</style><clipPath id="clip-path"><circle class="cls-1" cx="-285.28" cy="-839" r="37.85"/></clipPath><clipPath id="clip-path-2"><polygon class="cls-2" points="-297.28 -152.5 -300.85 -156.35 -311.05 -145.35 -316.15 -150.85 -319.72 -147 -311.05 -137.65 -297.28 -152.5"/></clipPath><clipPath id="clip-path-3"><polygon class="cls-4" points="-245.28 -152.5 -248.85 -156.35 -259.05 -145.35 -264.15 -150.85 -267.72 -147 -259.05 -137.65 -245.28 -152.5"/></clipPath><clipPath id="clip-path-4"><polygon class="cls-5" points="-201.26 -150.3 -203.25 -152.28 -208.92 -146.63 -211.75 -149.46 -213.74 -147.48 -208.92 -142.68 -201.26 -150.3"/></clipPath><clipPath id="clip-path-5"><polygon class="cls-5" points="-144.28 -152.5 -147.85 -156.35 -158.05 -145.35 -163.15 -150.85 -166.72 -147 -158.05 -137.65 -144.28 -152.5"/></clipPath><clipPath id="clip-path-6"><path class="cls-2" d="M-332-205.55V-211h1.1v5.45h5.45v1.1h-5.45V-199H-332v-5.45h-5.45v-1.1Zm.55,11.46A10.92,10.92,0,0,0-320.59-205a10.92,10.92,0,0,0-10.91-10.91A10.92,10.92,0,0,0-342.41-205,10.92,10.92,0,0,0-331.5-194.09Zm0,1.09a12,12,0,0,1-12-12,12,12,0,0,1,12-12,12,12,0,0,1,12,12A12,12,0,0,1-331.5-193Z"/></clipPath><clipPath id="clip-path-7"><path class="cls-2" d="M-87.5-214a9.27,9.27,0,0,1,9.36,9.16,9.28,9.28,0,0,1-9.36,9.17,9.28,9.28,0,0,1-9.36-9.17A9.27,9.27,0,0,1-87.5-214m0-.84a10.11,10.11,0,0,0-10.21,10,10.1,10.1,0,0,0,10.21,10,10.1,10.1,0,0,0,10.21-10,10.11,10.11,0,0,0-10.21-10"/></clipPath><clipPath id="clip-path-9"><path class="cls-2" d="M-161.5-214.17a9.19,9.19,0,0,1,9.17,9.17,9.19,9.19,0,0,1-9.17,9.17,9.19,9.19,0,0,1-9.17-9.17,9.19,9.19,0,0,1,9.17-9.17m0-.83a10,10,0,0,0-10,10,10,10,0,0,0,10,10,10,10,0,0,0,10-10,10,10,0,0,0-10-10"/></clipPath><clipPath id="clip-path-11"><path class="cls-2" d="M-13.5-207a1.2,1.2,0,0,1-1.2-1.2,1.2,1.2,0,0,1,1.2-1.2,1.2,1.2,0,0,1,1.2,1.2A1.2,1.2,0,0,1-13.5-207Zm0,8.4A6.41,6.41,0,0,0-7.1-205a6.41,6.41,0,0,0-6.4-6.4,6.41,6.41,0,0,0-6.4,6.4A6.41,6.41,0,0,0-13.5-198.6Zm0,1.6a8,8,0,0,1-8-8,8,8,0,0,1,8-8,8,8,0,0,1,8,8A8,8,0,0,1-13.5-197Zm.8-5.2h.4a.8.8,0,0,1,.8.8.8.8,0,0,1-.8.8h-2.4a.8.8,0,0,1-.8-.8.8.8,0,0,1,.8-.8h.4v-2.4h-.4a.8.8,0,0,1-.8-.8.8.8,0,0,1,.8-.8h1.2a.79.79,0,0,1,.56.23.8.8,0,0,1,.24.57Z"/></clipPath><clipPath id="clip-path-12"><path class="cls-2" d="M208.5-214a9.09,9.09,0,0,1,9.17,9,9.09,9.09,0,0,1-9.17,9,9.09,9.09,0,0,1-9.17-9,9.09,9.09,0,0,1,9.17-9m0-.82a9.9,9.9,0,0,0-10,9.8,9.9,9.9,0,0,0,10,9.8,9.9,9.9,0,0,0,10-9.8,9.9,9.9,0,0,0-10-9.8"/></clipPath><clipPath id="clip-path-13"><path class="cls-2" d="M134.5-214.17a9.19,9.19,0,0,1,9.17,9.17,9.19,9.19,0,0,1-9.17,9.17,9.19,9.19,0,0,1-9.17-9.17,9.19,9.19,0,0,1,9.17-9.17m0-.83a10,10,0,0,0-10,10,10,10,0,0,0,10,10,10,10,0,0,0,10-10,10,10,0,0,0-10-10"/></clipPath><clipPath id="clip-path-14"><polygon class="cls-2" points="364 -210.99 362.49 -212.5 356.5 -206.51 350.51 -212.5 349 -210.99 354.99 -205 349 -199.01 350.51 -197.5 356.5 -203.49 362.49 -197.5 364 -199.01 358.01 -205 364 -210.99"/></clipPath><clipPath id="clip-path-15"><circle class="cls-1" cx="-92.5" cy="-64" r="12"/></clipPath><clipPath id="clip-path-16"><circle class="cls-1" cx="-136.5" cy="-64" r="12"/></clipPath><clipPath id="clip-path-17"><path class="cls-2" d="M159.5-76h0a12,12,0,0,1,12,12,12,12,0,0,1-12,12,12,12,0,0,1-12-12A12,12,0,0,1,159.5-76Z"/></clipPath><clipPath id="clip-path-18"><path class="cls-2" d="M941.32-48.08a2.7,2.7,0,0,1-1.91-.79l-.59-.59a2.76,2.76,0,0,1-.79-2,2.75,2.75,0,0,1,1-2l10.15-8.45a.49.49,0,0,1,.67,0l2,2a.48.48,0,0,1,0,.67L943.4-49a2.72,2.72,0,0,1-2,1Zm8.12-12.76-9.8,8.16a1.69,1.69,0,0,0-.61,1.23,1.7,1.7,0,0,0,.5,1.28l.59.59a1.63,1.63,0,0,0,1.28.5,1.69,1.69,0,0,0,1.23-.61l8.16-9.8Z"/></clipPath><clipPath id="clip-path-19"><path class="cls-2" d="M953.47-57a.5.5,0,0,1-.35-.14l-6-6a.5.5,0,0,1,0-.71l5-5a.48.48,0,0,1,.7,0l6,6a.5.5,0,0,1,0,.71l-5,5A.5.5,0,0,1,953.47-57Zm-5.29-6.5,5.29,5.29,4.29-4.29-5.29-5.29Z"/></clipPath><clipPath id="clip-path-20"><path class="cls-2" d="M955.47-54a3,3,0,0,1-2.12-.88,2.23,2.23,0,0,1,0-3.17l4.54-4.54a2.24,2.24,0,0,1,3.16,0,3,3,0,0,1,0,4.24l-3.47,3.47a3,3,0,0,1-2.12.88m4-8.25a1.21,1.21,0,0,0-.88.37l-4.54,4.53a1.26,1.26,0,0,0,0,1.76,2,2,0,0,0,2.83,0l3.47-3.46a2,2,0,0,0,0-2.83,1.21,1.21,0,0,0-.88-.37"/></clipPath><clipPath id="clip-path-21"><path class="cls-2" d="M946.47-62.74a2.21,2.21,0,0,1-1.58-.66,3,3,0,0,1,0-4.24l3.47-3.46a3,3,0,0,1,4.24,0,2.23,2.23,0,0,1,0,3.17l-4.54,4.53a2.21,2.21,0,0,1-1.58.66m4-8.24a2,2,0,0,0-1.41.58l-3.47,3.47a2,2,0,0,0,0,2.83,1.26,1.26,0,0,0,1.76,0l4.54-4.54a1.26,1.26,0,0,0,0-1.76,2,2,0,0,0-1.42-.58"/></clipPath><clipPath id="clip-path-22"><path class="cls-2" d="M961.47-48H951.6a.5.5,0,0,1-.5-.5,2.5,2.5,0,0,1,2.5-2.5h5.87a2.5,2.5,0,0,1,2.5,2.5.5.5,0,0,1-.5.5m-9.29-1h8.7a1.5,1.5,0,0,0-1.41-1H953.6a1.51,1.51,0,0,0-1.42,1"/></clipPath><clipPath id="clip-path-23"><path class="cls-1" d="M191.22,12h-2.08v8H186V12h-1.5V9.17H186V7.34A3,3,0,0,1,189.17,4h2.33V6.74h-1.69c-.28,0-.67.15-.67.77V9.17h2.35Z"/></clipPath><clipPath id="clip-path-24"><path class="cls-1" d="M152,7a6.61,6.61,0,0,1-1.89.52,3.32,3.32,0,0,0,1.45-1.82,6.62,6.62,0,0,1-2.09.8,3.28,3.28,0,0,0-5.68,2.24,3.08,3.08,0,0,0,.09.75,9.32,9.32,0,0,1-6.77-3.43,3.29,3.29,0,0,0,1,4.38,3.13,3.13,0,0,1-1.49-.41v0a3.28,3.28,0,0,0,2.64,3.22,3.22,3.22,0,0,1-1.49.06,3.3,3.3,0,0,0,3.07,2.28,6.58,6.58,0,0,1-4.08,1.4,6.79,6.79,0,0,1-.78,0,9.34,9.34,0,0,0,14.37-7.87c0-.14,0-.28,0-.42A6.79,6.79,0,0,0,152,7Z"/></clipPath><clipPath id="clip-path-25"><path class="cls-1" d="M105.39,7.85a1.24,1.24,0,1,1,1.23-1.24A1.25,1.25,0,0,1,105.39,7.85ZM100,17.23A5.23,5.23,0,1,1,105.22,12,5.23,5.23,0,0,1,100,17.23Zm5-13.18H95A2.92,2.92,0,0,0,92.07,7V17A2.92,2.92,0,0,0,95,20h10A2.92,2.92,0,0,0,107.93,17V7A2.92,2.92,0,0,0,105,4.05Z"/></clipPath><clipPath id="clip-path-26"><path class="cls-1" d="M100,9a3,3,0,1,0,3,3A3,3,0,0,0,100,9Z"/></clipPath><clipPath id="clip-path-27"><path class="cls-2" d="M50.21,8.16A1.82,1.82,0,0,0,52.1,6.43a1.9,1.9,0,0,0-3.79,0,1.82,1.82,0,0,0,1.9,1.73"/></clipPath><clipPath id="clip-path-28"><rect class="cls-1" x="48.74" y="9.48" width="3.4" height="9.83"/></clipPath><clipPath id="clip-path-29"><path class="cls-2" d="M56.92,13.84c0-1.12.53-2.23,1.8-2.23s1.58,1.11,1.58,2.21v5.36h3.39V13.6C63.69,9.71,61.4,9,60,9a3.43,3.43,0,0,0-3.07,1.64V9.35h-3.4v9.83h3.4Z"/></clipPath><clipPath id="clip-path-30"><path class="cls-2" d="M236.92,12.2c.2-.11.2-.29,0-.4l-8.56-4.75c-.2-.11-.36,0-.36.21v9.48c0,.23.16.32.36.21ZM232,28a16,16,0,1,1,16-16A16,16,0,0,1,232,28Z"/></clipPath></defs><title>icons-android</title><g id="Layer_1" data-name="Layer 1"><polygon class="cls-8" points="-245.28 -152.5 -248.85 -156.35 -259.05 -145.35 -264.15 -150.85 -267.72 -147 -259.05 -137.65 -245.28 -152.5"/><g class="cls-9"><rect class="cls-10" x="-413.59" y="-683.72" width="701.29" height="1258.58"/></g><polygon class="cls-11" points="-201.26 -150.3 -203.25 -152.28 -208.92 -146.63 -211.75 -149.46 -213.74 -147.48 -208.92 -142.68 -201.26 -150.3"/><g class="cls-12"><rect class="cls-13" x="-243.5" y="-600" width="375" height="875"/></g><polygon class="cls-11" points="-144.28 -152.5 -147.85 -156.35 -158.05 -145.35 -163.15 -150.85 -166.72 -147 -158.05 -137.65 -144.28 -152.5"/><g class="cls-14"><rect class="cls-13" x="-312.59" y="-683.72" width="701.29" height="1258.58"/></g></g><g id="Layer_2" data-name="Layer 2"><g id="_Group_" data-name="&lt;Group&gt;"><g id="_Group_2" data-name="&lt;Group&gt;"><path id="_Path_" data-name="&lt;Path&gt;" d="M3.5,8A1.5,1.5,0,0,0,2,9.5v7a1.5,1.5,0,0,0,3,0v-7A1.5,1.5,0,0,0,3.5,8Z"/><path id="_Path_2" data-name="&lt;Path&gt;" d="M20.5,8A1.5,1.5,0,0,0,19,9.5v7a1.5,1.5,0,0,0,3,0v-7A1.5,1.5,0,0,0,20.5,8Z"/><path id="_Path_3" data-name="&lt;Path&gt;" d="M17.5,8H6.5a.5.5,0,0,0-.5.5v8A2.5,2.5,0,0,0,8,19V22.5a1.5,1.5,0,0,0,3,0V19h2v3.5a1.5,1.5,0,0,0,3,0V19a2.5,2.5,0,0,0,2-2.45v-8A.5.5,0,0,0,17.5,8Z"/></g><path id="_Compound_Path_" data-name="&lt;Compound Path&gt;" d="M15.64,2.07,16.85.85a.48.48,0,0,0,0-.7.48.48,0,0,0-.7,0L14.73,1.57a6.82,6.82,0,0,0-5.46,0L7.85.15a.48.48,0,0,0-.7,0,.48.48,0,0,0,0,.7L8.36,2.07A5.29,5.29,0,0,0,6,6.5a.5.5,0,0,0,.5.5h11a.5.5,0,0,0,.5-.5A5.29,5.29,0,0,0,15.64,2.07ZM9.5,5a.5.5,0,1,1,.5-.5A.5.5,0,0,1,9.5,5Zm5,0a.5.5,0,1,1,.5-.5A.5.5,0,0,1,14.5,5Z"/></g></g></svg>