<svg xmlns="http://www.w3.org/2000/svg" xmlns:xlink="http://www.w3.org/1999/xlink" viewBox="0 0 24 24"><defs><style>.cls-1,.cls-3,.cls-4{fill:none;}.cls-12,.cls-14,.cls-2{fill:#96a4b6;}.cls-2,.cls-3,.cls-5{clip-rule:evenodd;}.cls-12,.cls-4,.cls-7{fill-rule:evenodd;}.cls-5,.cls-7,.cls-9{fill:#eaecf0;}.cls-6{clip-path:url(#clip-path);}.cls-8{clip-path:url(#clip-path-2);}.cls-10{clip-path:url(#clip-path-3);}.cls-11{clip-path:url(#clip-path-4);}.cls-13{clip-path:url(#clip-path-5);}.cls-15{clip-path:url(#clip-path-6);}.cls-16{clip-path:url(#clip-path-7);}.cls-17{clip-path:url(#clip-path-8);}.cls-18{clip-path:url(#clip-path-10);}.cls-19{clip-path:url(#clip-path-12);}.cls-20{clip-path:url(#clip-path-13);}.cls-21{clip-path:url(#clip-path-14);}.cls-22{clip-path:url(#clip-path-15);}.cls-23{clip-path:url(#clip-path-16);}.cls-24{clip-path:url(#clip-path-17);}.cls-25{clip-path:url(#clip-path-18);}.cls-26{clip-path:url(#clip-path-19);}.cls-27{clip-path:url(#clip-path-20);}.cls-28{clip-path:url(#clip-path-21);}.cls-29{clip-path:url(#clip-path-22);}.cls-30{clip-path:url(#clip-path-23);}.cls-31{clip-path:url(#clip-path-24);}.cls-32{clip-path:url(#clip-path-25);}.cls-33{clip-path:url(#clip-path-26);}</style><clipPath id="clip-path"><circle class="cls-1" cx="-241.28" cy="-839" r="37.85"/></clipPath><clipPath id="clip-path-2"><polygon class="cls-5" points="-310.26 -150.3 -312.25 -152.28 -317.92 -146.63 -320.75 -149.46 -322.74 -147.48 -317.92 -142.68 -310.26 -150.3"/></clipPath><clipPath id="clip-path-3"><polygon class="cls-3" points="-253.28 -152.5 -256.85 -156.35 -267.05 -145.35 -272.15 -150.85 -275.72 -147 -267.05 -137.65 -253.28 -152.5"/></clipPath><clipPath id="clip-path-4"><polygon class="cls-5" points="-201.28 -152.5 -204.85 -156.35 -215.05 -145.35 -220.15 -150.85 -223.72 -147 -215.05 -137.65 -201.28 -152.5"/></clipPath><clipPath id="clip-path-5"><polygon class="cls-2" points="-157.26 -150.3 -159.25 -152.28 -164.92 -146.63 -167.75 -149.46 -169.74 -147.48 -164.92 -142.68 -157.26 -150.3"/></clipPath><clipPath id="clip-path-6"><polygon class="cls-2" points="-100.28 -152.5 -103.85 -156.35 -114.05 -145.35 -119.15 -150.85 -122.72 -147 -114.05 -137.65 -100.28 -152.5"/></clipPath><clipPath id="clip-path-7"><path class="cls-3" d="M-288-205.55V-211h1.1v5.45h5.45v1.1h-5.45V-199H-288v-5.45h-5.45v-1.1Zm.55,11.46A10.92,10.92,0,0,0-276.59-205a10.92,10.92,0,0,0-10.91-10.91A10.92,10.92,0,0,0-298.41-205,10.92,10.92,0,0,0-287.5-194.09Zm0,1.09a12,12,0,0,1-12-12,12,12,0,0,1,12-12,12,12,0,0,1,12,12A12,12,0,0,1-287.5-193Z"/></clipPath><clipPath id="clip-path-8"><path class="cls-3" d="M-43.5-214a9.27,9.27,0,0,1,9.36,9.16,9.28,9.28,0,0,1-9.36,9.17,9.28,9.28,0,0,1-9.36-9.17A9.27,9.27,0,0,1-43.5-214m0-.84a10.11,10.11,0,0,0-10.21,10,10.1,10.1,0,0,0,10.21,10,10.1,10.1,0,0,0,10.21-10,10.11,10.11,0,0,0-10.21-10"/></clipPath><clipPath id="clip-path-10"><path class="cls-3" d="M-117.5-214.17a9.19,9.19,0,0,1,9.17,9.17,9.19,9.19,0,0,1-9.17,9.17,9.19,9.19,0,0,1-9.17-9.17,9.19,9.19,0,0,1,9.17-9.17m0-.83a10,10,0,0,0-10,10,10,10,0,0,0,10,10,10,10,0,0,0,10-10,10,10,0,0,0-10-10"/></clipPath><clipPath id="clip-path-12"><path class="cls-3" d="M30.5-207a1.2,1.2,0,0,1-1.2-1.2,1.2,1.2,0,0,1,1.2-1.2,1.2,1.2,0,0,1,1.2,1.2A1.2,1.2,0,0,1,30.5-207Zm0,8.4a6.41,6.41,0,0,0,6.4-6.4,6.41,6.41,0,0,0-6.4-6.4,6.41,6.41,0,0,0-6.4,6.4A6.41,6.41,0,0,0,30.5-198.6Zm0,1.6a8,8,0,0,1-8-8,8,8,0,0,1,8-8,8,8,0,0,1,8,8A8,8,0,0,1,30.5-197Zm.8-5.2h.4a.8.8,0,0,1,.8.8.8.8,0,0,1-.8.8H29.3a.8.8,0,0,1-.8-.8.8.8,0,0,1,.8-.8h.4v-2.4h-.4a.8.8,0,0,1-.8-.8.8.8,0,0,1,.8-.8h1.2a.79.79,0,0,1,.56.23.8.8,0,0,1,.24.57Z"/></clipPath><clipPath id="clip-path-13"><path class="cls-3" d="M252.5-214a9.09,9.09,0,0,1,9.17,9,9.09,9.09,0,0,1-9.17,9,9.09,9.09,0,0,1-9.17-9,9.09,9.09,0,0,1,9.17-9m0-.82a9.9,9.9,0,0,0-10,9.8,9.9,9.9,0,0,0,10,9.8,9.9,9.9,0,0,0,10-9.8,9.9,9.9,0,0,0-10-9.8"/></clipPath><clipPath id="clip-path-14"><path class="cls-3" d="M178.5-214.17a9.19,9.19,0,0,1,9.17,9.17,9.19,9.19,0,0,1-9.17,9.17,9.19,9.19,0,0,1-9.17-9.17,9.19,9.19,0,0,1,9.17-9.17m0-.83a10,10,0,0,0-10,10,10,10,0,0,0,10,10,10,10,0,0,0,10-10,10,10,0,0,0-10-10"/></clipPath><clipPath id="clip-path-15"><polygon class="cls-3" points="408 -210.99 406.49 -212.5 400.5 -206.51 394.51 -212.5 393 -210.99 398.99 -205 393 -199.01 394.51 -197.5 400.5 -203.49 406.49 -197.5 408 -199.01 402.01 -205 408 -210.99"/></clipPath><clipPath id="clip-path-16"><circle class="cls-1" cx="-48.5" cy="-64" r="12"/></clipPath><clipPath id="clip-path-17"><circle class="cls-1" cx="-92.5" cy="-64" r="12"/></clipPath><clipPath id="clip-path-18"><path class="cls-3" d="M203.5-76h0a12,12,0,0,1,12,12,12,12,0,0,1-12,12,12,12,0,0,1-12-12A12,12,0,0,1,203.5-76Z"/></clipPath><clipPath id="clip-path-19"><path class="cls-1" d="M235.22,12h-2.08v8H230V12h-1.5V9.17H230V7.34A3,3,0,0,1,233.17,4h2.33V6.74h-1.69c-.28,0-.67.15-.67.77V9.17h2.35Z"/></clipPath><clipPath id="clip-path-20"><path class="cls-1" d="M196,7a6.61,6.61,0,0,1-1.89.52,3.32,3.32,0,0,0,1.45-1.82,6.62,6.62,0,0,1-2.09.8,3.28,3.28,0,0,0-5.68,2.24,3.08,3.08,0,0,0,.09.75,9.32,9.32,0,0,1-6.77-3.43,3.29,3.29,0,0,0,1,4.38,3.13,3.13,0,0,1-1.49-.41v0a3.28,3.28,0,0,0,2.64,3.22,3.22,3.22,0,0,1-1.49.06,3.3,3.3,0,0,0,3.07,2.28,6.58,6.58,0,0,1-4.08,1.4,6.79,6.79,0,0,1-.78,0,9.34,9.34,0,0,0,14.37-7.87c0-.14,0-.28,0-.42A6.79,6.79,0,0,0,196,7Z"/></clipPath><clipPath id="clip-path-21"><path class="cls-1" d="M149.39,7.85a1.24,1.24,0,1,1,1.23-1.24A1.25,1.25,0,0,1,149.39,7.85ZM144,17.23A5.23,5.23,0,1,1,149.22,12,5.23,5.23,0,0,1,144,17.23Zm5-13.18H139A2.92,2.92,0,0,0,136.07,7V17A2.92,2.92,0,0,0,139,20h10A2.92,2.92,0,0,0,151.93,17V7A2.92,2.92,0,0,0,149,4.05Z"/></clipPath><clipPath id="clip-path-22"><path class="cls-1" d="M144,9a3,3,0,1,0,3,3A3,3,0,0,0,144,9Z"/></clipPath><clipPath id="clip-path-23"><path class="cls-3" d="M94.21,8.16A1.82,1.82,0,0,0,96.1,6.43a1.9,1.9,0,0,0-3.79,0,1.82,1.82,0,0,0,1.9,1.73"/></clipPath><clipPath id="clip-path-24"><rect class="cls-1" x="92.74" y="9.48" width="3.4" height="9.83"/></clipPath><clipPath id="clip-path-25"><path class="cls-3" d="M100.92,13.84c0-1.12.53-2.23,1.8-2.23s1.58,1.11,1.58,2.21v5.36h3.39V13.6C107.69,9.71,105.4,9,104,9a3.43,3.43,0,0,0-3.07,1.64V9.35h-3.4v9.83h3.4Z"/></clipPath><clipPath id="clip-path-26"><path class="cls-3" d="M280.92,12.2c.2-.11.2-.29,0-.4l-8.56-4.75c-.2-.11-.36,0-.36.21v9.48c0,.23.16.32.36.21ZM276,28a16,16,0,1,1,16-16A16,16,0,0,1,276,28Z"/></clipPath></defs><title>icons-apple</title><g id="Layer_1" data-name="Layer 1"><polygon class="cls-7" points="-310.26 -150.3 -312.25 -152.28 -317.92 -146.63 -320.75 -149.46 -322.74 -147.48 -317.92 -142.68 -310.26 -150.3"/><g class="cls-8"><rect class="cls-9" x="-352.5" y="-600" width="375" height="875"/></g><polygon class="cls-7" points="-201.28 -152.5 -204.85 -156.35 -215.05 -145.35 -220.15 -150.85 -223.72 -147 -215.05 -137.65 -201.28 -152.5"/><g class="cls-11"><rect class="cls-9" x="-369.59" y="-683.72" width="701.29" height="1258.58"/></g><polygon class="cls-12" points="-157.26 -150.3 -159.25 -152.28 -164.92 -146.63 -167.75 -149.46 -169.74 -147.48 -164.92 -142.68 -157.26 -150.3"/><g class="cls-13"><rect class="cls-14" x="-199.5" y="-600" width="375" height="875"/></g><polygon class="cls-12" points="-100.28 -152.5 -103.85 -156.35 -114.05 -145.35 -119.15 -150.85 -122.72 -147 -114.05 -137.65 -100.28 -152.5"/><g class="cls-15"><rect class="cls-14" x="-268.59" y="-683.72" width="701.29" height="1258.58"/></g></g><g id="Layer_2" data-name="Layer 2"><g id="_Group_" data-name="&lt;Group&gt;"><path id="_Path_" data-name="&lt;Path&gt;" d="M21.65,16.67a.51.51,0,0,0-.35-.22,3.48,3.48,0,0,1-.59-6.77.48.48,0,0,0,.32-.3A.52.52,0,0,0,21,8.94,5.84,5.84,0,0,0,16.77,6a8.36,8.36,0,0,0-2.62.56A6.13,6.13,0,0,1,12.27,7a6.19,6.19,0,0,1-1.88-.44A8.3,8.3,0,0,0,7.77,6c-1.87,0-5.5,2.65-5.5,7.5,0,4.61,3.37,10.5,6,10.5a6.39,6.39,0,0,0,2.9-.67,2.8,2.8,0,0,1,1.1-.33,2.8,2.8,0,0,1,1.1.33,6.39,6.39,0,0,0,2.9.67c2.09,0,4.45-3.59,5.44-6.91A.52.52,0,0,0,21.65,16.67Z"/><ellipse id="_Path_2" data-name="&lt;Path&gt;" cx="14.27" cy="3" rx="4.06" ry="1.22" transform="translate(2.06 10.97) rotate(-45)"/></g></g></svg>