<svg xmlns="http://www.w3.org/2000/svg" xmlns:xlink="http://www.w3.org/1999/xlink" viewBox="0 0 24 24"><defs><style>.cls-1,.cls-2,.cls-3{fill:none;}.cls-2,.cls-4,.cls-5{clip-rule:evenodd;}.cls-11,.cls-3,.cls-8{fill-rule:evenodd;}.cls-10,.cls-4,.cls-8{fill:#eaecf0;}.cls-11,.cls-13,.cls-5{fill:#96a4b6;}.cls-6{clip-path:url(#clip-path);}.cls-7{clip-path:url(#clip-path-2);}.cls-9{clip-path:url(#clip-path-3);}.cls-12{clip-path:url(#clip-path-4);}.cls-14{clip-path:url(#clip-path-5);}.cls-15{clip-path:url(#clip-path-6);}.cls-16{clip-path:url(#clip-path-7);}.cls-17{clip-path:url(#clip-path-9);}.cls-18{clip-path:url(#clip-path-11);}.cls-19{clip-path:url(#clip-path-12);}.cls-20{clip-path:url(#clip-path-13);}.cls-21{clip-path:url(#clip-path-14);}.cls-22{clip-path:url(#clip-path-15);}.cls-23{clip-path:url(#clip-path-16);}.cls-24{clip-path:url(#clip-path-17);}.cls-25{clip-path:url(#clip-path-18);}.cls-26{clip-path:url(#clip-path-19);}.cls-27{clip-path:url(#clip-path-20);}.cls-28{clip-path:url(#clip-path-21);}.cls-29{clip-path:url(#clip-path-22);}.cls-30{clip-path:url(#clip-path-23);}.cls-31{clip-path:url(#clip-path-24);}.cls-32{clip-path:url(#clip-path-25);}.cls-33{clip-path:url(#clip-path-26);}.cls-34{clip-path:url(#clip-path-27);}.cls-35{fill:#333;}.cls-36{clip-path:url(#clip-path-28);}.cls-37{clip-path:url(#clip-path-30);}.cls-38{clip-path:url(#clip-path-31);}.cls-39{clip-path:url(#clip-path-32);}.cls-40{clip-path:url(#clip-path-33);}</style><clipPath id="clip-path"><circle class="cls-1" cx="-373.28" cy="-839" r="37.85"/></clipPath><clipPath id="clip-path-2"><polygon class="cls-2" points="-385.28 -152.5 -388.85 -156.35 -399.05 -145.35 -404.15 -150.85 -407.72 -147 -399.05 -137.65 -385.28 -152.5"/></clipPath><clipPath id="clip-path-3"><polygon class="cls-4" points="-333.28 -152.5 -336.85 -156.35 -347.05 -145.35 -352.15 -150.85 -355.72 -147 -347.05 -137.65 -333.28 -152.5"/></clipPath><clipPath id="clip-path-4"><polygon class="cls-5" points="-289.26 -150.3 -291.25 -152.28 -296.92 -146.63 -299.75 -149.46 -301.74 -147.48 -296.92 -142.68 -289.26 -150.3"/></clipPath><clipPath id="clip-path-5"><polygon class="cls-5" points="-232.28 -152.5 -235.85 -156.35 -246.05 -145.35 -251.15 -150.85 -254.72 -147 -246.05 -137.65 -232.28 -152.5"/></clipPath><clipPath id="clip-path-6"><polygon class="cls-2" points="352.95 -60.55 352.95 -66 354.05 -66 354.05 -60.55 359.5 -60.55 359.5 -59.45 354.05 -59.45 354.05 -54 352.95 -54 352.95 -59.45 347.5 -59.45 347.5 -60.55 352.95 -60.55"/></clipPath><clipPath id="clip-path-7"><path class="cls-2" d="M-175.5-214a9.27,9.27,0,0,1,9.36,9.16,9.28,9.28,0,0,1-9.36,9.17,9.28,9.28,0,0,1-9.36-9.17A9.27,9.27,0,0,1-175.5-214m0-.84a10.11,10.11,0,0,0-10.21,10,10.1,10.1,0,0,0,10.21,10,10.1,10.1,0,0,0,10.21-10,10.11,10.11,0,0,0-10.21-10"/></clipPath><clipPath id="clip-path-9"><path class="cls-2" d="M-249.5-214.17a9.19,9.19,0,0,1,9.17,9.17,9.19,9.19,0,0,1-9.17,9.17,9.19,9.19,0,0,1-9.17-9.17,9.19,9.19,0,0,1,9.17-9.17m0-.83a10,10,0,0,0-10,10,10,10,0,0,0,10,10,10,10,0,0,0,10-10,10,10,0,0,0-10-10"/></clipPath><clipPath id="clip-path-11"><path class="cls-2" d="M-101.5-207a1.2,1.2,0,0,1-1.2-1.2,1.2,1.2,0,0,1,1.2-1.2,1.2,1.2,0,0,1,1.2,1.2A1.2,1.2,0,0,1-101.5-207Zm0,8.4a6.41,6.41,0,0,0,6.4-6.4,6.41,6.41,0,0,0-6.4-6.4,6.41,6.41,0,0,0-6.4,6.4A6.41,6.41,0,0,0-101.5-198.6Zm0,1.6a8,8,0,0,1-8-8,8,8,0,0,1,8-8,8,8,0,0,1,8,8A8,8,0,0,1-101.5-197Zm.8-5.2h.4a.8.8,0,0,1,.8.8.8.8,0,0,1-.8.8h-2.4a.8.8,0,0,1-.8-.8.8.8,0,0,1,.8-.8h.4v-2.4h-.4a.8.8,0,0,1-.8-.8.8.8,0,0,1,.8-.8h1.2a.79.79,0,0,1,.56.23.8.8,0,0,1,.24.57Z"/></clipPath><clipPath id="clip-path-12"><path class="cls-2" d="M120.5-214a9.09,9.09,0,0,1,9.17,9,9.09,9.09,0,0,1-9.17,9,9.09,9.09,0,0,1-9.17-9,9.09,9.09,0,0,1,9.17-9m0-.82a9.9,9.9,0,0,0-10,9.8,9.9,9.9,0,0,0,10,9.8,9.9,9.9,0,0,0,10-9.8,9.9,9.9,0,0,0-10-9.8"/></clipPath><clipPath id="clip-path-13"><path class="cls-2" d="M46.5-214.17A9.19,9.19,0,0,1,55.67-205a9.19,9.19,0,0,1-9.17,9.17A9.19,9.19,0,0,1,37.33-205a9.19,9.19,0,0,1,9.17-9.17m0-.83a10,10,0,0,0-10,10,10,10,0,0,0,10,10,10,10,0,0,0,10-10,10,10,0,0,0-10-10"/></clipPath><clipPath id="clip-path-14"><polygon class="cls-2" points="276 -210.99 274.49 -212.5 268.5 -206.51 262.51 -212.5 261 -210.99 266.99 -205 261 -199.01 262.51 -197.5 268.5 -203.49 274.49 -197.5 276 -199.01 270.01 -205 276 -210.99"/></clipPath><clipPath id="clip-path-15"><rect class="cls-1" x="44.5" y="-163" width="16" height="16" rx="2.91" ry="2.91"/></clipPath><clipPath id="clip-path-16"><circle class="cls-1" cx="-180.5" cy="-64" r="12"/></clipPath><clipPath id="clip-path-17"><circle class="cls-1" cx="-224.5" cy="-64" r="12"/></clipPath><clipPath id="clip-path-18"><path class="cls-2" d="M71.5-76h0a12,12,0,0,1,12,12,12,12,0,0,1-12,12,12,12,0,0,1-12-12A12,12,0,0,1,71.5-76Z"/></clipPath><clipPath id="clip-path-19"><path class="cls-2" d="M853.32-48.08a2.7,2.7,0,0,1-1.91-.79l-.59-.59a2.76,2.76,0,0,1-.79-2,2.75,2.75,0,0,1,1-2l10.15-8.45a.49.49,0,0,1,.67,0l2,2a.48.48,0,0,1,0,.67L855.4-49a2.72,2.72,0,0,1-2,1Zm8.12-12.76-9.8,8.16a1.69,1.69,0,0,0-.61,1.23,1.7,1.7,0,0,0,.5,1.28l.59.59a1.63,1.63,0,0,0,1.28.5,1.69,1.69,0,0,0,1.23-.61l8.16-9.8Z"/></clipPath><clipPath id="clip-path-20"><path class="cls-2" d="M865.47-57a.5.5,0,0,1-.35-.14l-6-6a.5.5,0,0,1,0-.71l5-5a.48.48,0,0,1,.7,0l6,6a.5.5,0,0,1,0,.71l-5,5A.5.5,0,0,1,865.47-57Zm-5.29-6.5,5.29,5.29,4.29-4.29-5.29-5.29Z"/></clipPath><clipPath id="clip-path-21"><path class="cls-2" d="M867.47-54a3,3,0,0,1-2.12-.88,2.23,2.23,0,0,1,0-3.17l4.54-4.54a2.24,2.24,0,0,1,3.16,0,3,3,0,0,1,0,4.24l-3.47,3.47a3,3,0,0,1-2.12.88m4-8.25a1.21,1.21,0,0,0-.88.37l-4.54,4.53a1.26,1.26,0,0,0,0,1.76,2,2,0,0,0,2.83,0l3.47-3.46a2,2,0,0,0,0-2.83,1.21,1.21,0,0,0-.88-.37"/></clipPath><clipPath id="clip-path-22"><path class="cls-2" d="M858.47-62.74a2.21,2.21,0,0,1-1.58-.66,3,3,0,0,1,0-4.24l3.47-3.46a3,3,0,0,1,4.24,0,2.23,2.23,0,0,1,0,3.17l-4.54,4.53a2.21,2.21,0,0,1-1.58.66m4-8.24a2,2,0,0,0-1.41.58l-3.47,3.47a2,2,0,0,0,0,2.83,1.26,1.26,0,0,0,1.76,0l4.54-4.54a1.26,1.26,0,0,0,0-1.76,2,2,0,0,0-1.42-.58"/></clipPath><clipPath id="clip-path-23"><path class="cls-2" d="M873.47-48H863.6a.5.5,0,0,1-.5-.5,2.5,2.5,0,0,1,2.5-2.5h5.87a2.5,2.5,0,0,1,2.5,2.5.5.5,0,0,1-.5.5m-9.29-1h8.7a1.5,1.5,0,0,0-1.41-1H865.6a1.51,1.51,0,0,0-1.42,1"/></clipPath><clipPath id="clip-path-24"><path class="cls-1" d="M103.22,12h-2.08v8H98V12H96.5V9.17H98V7.34A3,3,0,0,1,101.17,4h2.33V6.74h-1.69c-.28,0-.67.15-.67.77V9.17h2.35Z"/></clipPath><clipPath id="clip-path-25"><path class="cls-1" d="M64,7a6.61,6.61,0,0,1-1.89.52,3.32,3.32,0,0,0,1.45-1.82,6.62,6.62,0,0,1-2.09.8,3.28,3.28,0,0,0-5.68,2.24,3.08,3.08,0,0,0,.09.75A9.32,9.32,0,0,1,49.11,6.1a3.29,3.29,0,0,0,1,4.38,3.13,3.13,0,0,1-1.49-.41v0a3.28,3.28,0,0,0,2.64,3.22,3.22,3.22,0,0,1-1.49.06,3.3,3.3,0,0,0,3.07,2.28,6.58,6.58,0,0,1-4.08,1.4A6.79,6.79,0,0,1,48,17,9.34,9.34,0,0,0,62.37,9.16c0-.14,0-.28,0-.42A6.79,6.79,0,0,0,64,7Z"/></clipPath><clipPath id="clip-path-26"><path class="cls-1" d="M17.39,7.85a1.24,1.24,0,1,1,1.23-1.24A1.25,1.25,0,0,1,17.39,7.85ZM12,17.23A5.23,5.23,0,1,1,17.22,12,5.23,5.23,0,0,1,12,17.23ZM17,4.05H7A2.92,2.92,0,0,0,4.07,7V17A2.92,2.92,0,0,0,7,20H17A2.92,2.92,0,0,0,19.93,17V7A2.92,2.92,0,0,0,17,4.05Z"/></clipPath><clipPath id="clip-path-27"><rect class="cls-1" x="-191.95" y="-4448.95" width="1440" height="4692"/></clipPath><clipPath id="clip-path-28"><path class="cls-1" d="M12,9a3,3,0,1,0,3,3A3,3,0,0,0,12,9Z"/></clipPath><clipPath id="clip-path-30"><path class="cls-2" d="M-37.79,8.16A1.82,1.82,0,0,0-35.9,6.43a1.82,1.82,0,0,0-1.89-1.74,1.83,1.83,0,0,0-1.9,1.74,1.82,1.82,0,0,0,1.9,1.73"/></clipPath><clipPath id="clip-path-31"><rect class="cls-1" x="-39.26" y="9.48" width="3.4" height="9.83"/></clipPath><clipPath id="clip-path-32"><path class="cls-2" d="M-31.08,13.84c0-1.12.53-2.23,1.8-2.23s1.58,1.11,1.58,2.21v5.36h3.39V13.6C-24.31,9.71-26.6,9-28,9a3.43,3.43,0,0,0-3.07,1.64V9.35h-3.4v9.83h3.4Z"/></clipPath><clipPath id="clip-path-33"><path class="cls-2" d="M148.92,12.2c.2-.11.2-.29,0-.4l-8.56-4.75c-.2-.11-.36,0-.36.21v9.48c0,.23.16.32.36.21ZM144,28a16,16,0,1,1,16-16A16,16,0,0,1,144,28Z"/></clipPath></defs><title>icons-social-instagram</title><g id="Layer_1" data-name="Layer 1"><polygon class="cls-8" points="-333.28 -152.5 -336.85 -156.35 -347.05 -145.35 -352.15 -150.85 -355.72 -147 -347.05 -137.65 -333.28 -152.5"/><g class="cls-9"><rect class="cls-10" x="-501.59" y="-683.72" width="701.29" height="1258.58"/></g><polygon class="cls-11" points="-289.26 -150.3 -291.25 -152.28 -296.92 -146.63 -299.75 -149.46 -301.74 -147.48 -296.92 -142.68 -289.26 -150.3"/><g class="cls-12"><rect class="cls-13" x="-331.5" y="-600" width="375" height="875"/></g><polygon class="cls-11" points="-232.28 -152.5 -235.85 -156.35 -246.05 -145.35 -251.15 -150.85 -254.72 -147 -246.05 -137.65 -232.28 -152.5"/><g class="cls-14"><rect class="cls-13" x="-400.59" y="-683.72" width="701.29" height="1258.58"/></g></g><g id="Layer_2" data-name="Layer 2"><g class="cls-33"><g class="cls-34"><rect class="cls-35" x="-0.93" y="-0.95" width="25.85" height="25.89"/></g></g><g class="cls-36"><g class="cls-34"><rect class="cls-35" x="3.99" y="3.98" width="16.03" height="16.04"/></g></g></g></svg>