<svg xmlns="http://www.w3.org/2000/svg" xmlns:xlink="http://www.w3.org/1999/xlink" viewBox="0 0 24 24"><defs><style>.cls-1,.cls-2,.cls-3{fill:none;}.cls-2,.cls-4,.cls-5{clip-rule:evenodd;}.cls-11,.cls-3,.cls-8{fill-rule:evenodd;}.cls-10,.cls-4,.cls-8{fill:#eaecf0;}.cls-11,.cls-13,.cls-5{fill:#96a4b6;}.cls-6{clip-path:url(#clip-path);}.cls-7{clip-path:url(#clip-path-2);}.cls-9{clip-path:url(#clip-path-3);}.cls-12{clip-path:url(#clip-path-4);}.cls-14{clip-path:url(#clip-path-5);}.cls-15{clip-path:url(#clip-path-6);}.cls-16{clip-path:url(#clip-path-8);}.cls-17{clip-path:url(#clip-path-10);}.cls-18{clip-path:url(#clip-path-11);}.cls-19{clip-path:url(#clip-path-12);}.cls-20{clip-path:url(#clip-path-13);}.cls-21{clip-path:url(#clip-path-14);}.cls-22{clip-path:url(#clip-path-15);}.cls-23{clip-path:url(#clip-path-16);}.cls-24{clip-path:url(#clip-path-17);}.cls-25{clip-path:url(#clip-path-18);}.cls-26{clip-path:url(#clip-path-19);}.cls-27{clip-path:url(#clip-path-20);}.cls-28{clip-path:url(#clip-path-21);}.cls-29{clip-path:url(#clip-path-22);}.cls-30{clip-path:url(#clip-path-23);}.cls-31{clip-path:url(#clip-path-24);}.cls-32{clip-path:url(#clip-path-25);}.cls-33{clip-path:url(#clip-path-26);}.cls-34{clip-path:url(#clip-path-27);}.cls-35{fill:#333;}.cls-36{clip-path:url(#clip-path-28);}.cls-37{clip-path:url(#clip-path-30);}.cls-38{clip-path:url(#clip-path-32);}</style><clipPath id="clip-path"><circle class="cls-1" cx="-329.28" cy="-839" r="37.85"/></clipPath><clipPath id="clip-path-2"><polygon class="cls-2" points="-341.28 -152.5 -344.85 -156.35 -355.05 -145.35 -360.15 -150.85 -363.72 -147 -355.05 -137.65 -341.28 -152.5"/></clipPath><clipPath id="clip-path-3"><polygon class="cls-4" points="-289.28 -152.5 -292.85 -156.35 -303.05 -145.35 -308.15 -150.85 -311.72 -147 -303.05 -137.65 -289.28 -152.5"/></clipPath><clipPath id="clip-path-4"><polygon class="cls-5" points="-245.26 -150.3 -247.25 -152.28 -252.92 -146.63 -255.75 -149.46 -257.74 -147.48 -252.92 -142.68 -245.26 -150.3"/></clipPath><clipPath id="clip-path-5"><polygon class="cls-5" points="-188.28 -152.5 -191.85 -156.35 -202.05 -145.35 -207.15 -150.85 -210.72 -147 -202.05 -137.65 -188.28 -152.5"/></clipPath><clipPath id="clip-path-6"><path class="cls-2" d="M-131.5-214a9.27,9.27,0,0,1,9.36,9.16,9.28,9.28,0,0,1-9.36,9.17,9.28,9.28,0,0,1-9.36-9.17A9.27,9.27,0,0,1-131.5-214m0-.84a10.11,10.11,0,0,0-10.21,10,10.1,10.1,0,0,0,10.21,10,10.1,10.1,0,0,0,10.21-10,10.11,10.11,0,0,0-10.21-10"/></clipPath><clipPath id="clip-path-8"><path class="cls-2" d="M-205.5-214.17a9.19,9.19,0,0,1,9.17,9.17,9.19,9.19,0,0,1-9.17,9.17,9.19,9.19,0,0,1-9.17-9.17,9.19,9.19,0,0,1,9.17-9.17m0-.83a10,10,0,0,0-10,10,10,10,0,0,0,10,10,10,10,0,0,0,10-10,10,10,0,0,0-10-10"/></clipPath><clipPath id="clip-path-10"><path class="cls-2" d="M-57.5-207a1.2,1.2,0,0,1-1.2-1.2,1.2,1.2,0,0,1,1.2-1.2,1.2,1.2,0,0,1,1.2,1.2A1.2,1.2,0,0,1-57.5-207Zm0,8.4a6.41,6.41,0,0,0,6.4-6.4,6.41,6.41,0,0,0-6.4-6.4,6.41,6.41,0,0,0-6.4,6.4A6.41,6.41,0,0,0-57.5-198.6Zm0,1.6a8,8,0,0,1-8-8,8,8,0,0,1,8-8,8,8,0,0,1,8,8A8,8,0,0,1-57.5-197Zm.8-5.2h.4a.8.8,0,0,1,.8.8.8.8,0,0,1-.8.8h-2.4a.8.8,0,0,1-.8-.8.8.8,0,0,1,.8-.8h.4v-2.4h-.4a.8.8,0,0,1-.8-.8.8.8,0,0,1,.8-.8h1.2a.79.79,0,0,1,.56.23.8.8,0,0,1,.24.57Z"/></clipPath><clipPath id="clip-path-11"><path class="cls-2" d="M164.5-214a9.09,9.09,0,0,1,9.17,9,9.09,9.09,0,0,1-9.17,9,9.09,9.09,0,0,1-9.17-9,9.09,9.09,0,0,1,9.17-9m0-.82a9.9,9.9,0,0,0-10,9.8,9.9,9.9,0,0,0,10,9.8,9.9,9.9,0,0,0,10-9.8,9.9,9.9,0,0,0-10-9.8"/></clipPath><clipPath id="clip-path-12"><path class="cls-2" d="M90.5-214.17A9.19,9.19,0,0,1,99.67-205a9.19,9.19,0,0,1-9.17,9.17A9.19,9.19,0,0,1,81.33-205a9.19,9.19,0,0,1,9.17-9.17m0-.83a10,10,0,0,0-10,10,10,10,0,0,0,10,10,10,10,0,0,0,10-10,10,10,0,0,0-10-10"/></clipPath><clipPath id="clip-path-13"><polygon class="cls-2" points="320 -210.99 318.49 -212.5 312.5 -206.51 306.51 -212.5 305 -210.99 310.99 -205 305 -199.01 306.51 -197.5 312.5 -203.49 318.49 -197.5 320 -199.01 314.01 -205 320 -210.99"/></clipPath><clipPath id="clip-path-14"><circle class="cls-1" cx="-136.5" cy="-64" r="12"/></clipPath><clipPath id="clip-path-15"><circle class="cls-1" cx="-180.5" cy="-64" r="12"/></clipPath><clipPath id="clip-path-16"><path class="cls-2" d="M115.5-76h0a12,12,0,0,1,12,12,12,12,0,0,1-12,12,12,12,0,0,1-12-12A12,12,0,0,1,115.5-76Z"/></clipPath><clipPath id="clip-path-17"><path class="cls-2" d="M897.32-48.08a2.7,2.7,0,0,1-1.91-.79l-.59-.59a2.76,2.76,0,0,1-.79-2,2.75,2.75,0,0,1,1-2l10.15-8.45a.49.49,0,0,1,.67,0l2,2a.48.48,0,0,1,0,.67L899.4-49a2.72,2.72,0,0,1-2,1Zm8.12-12.76-9.8,8.16a1.69,1.69,0,0,0-.61,1.23,1.7,1.7,0,0,0,.5,1.28l.59.59a1.63,1.63,0,0,0,1.28.5,1.69,1.69,0,0,0,1.23-.61l8.16-9.8Z"/></clipPath><clipPath id="clip-path-18"><path class="cls-2" d="M909.47-57a.5.5,0,0,1-.35-.14l-6-6a.5.5,0,0,1,0-.71l5-5a.48.48,0,0,1,.7,0l6,6a.5.5,0,0,1,0,.71l-5,5A.5.5,0,0,1,909.47-57Zm-5.29-6.5,5.29,5.29,4.29-4.29-5.29-5.29Z"/></clipPath><clipPath id="clip-path-19"><path class="cls-2" d="M911.47-54a3,3,0,0,1-2.12-.88,2.23,2.23,0,0,1,0-3.17l4.54-4.54a2.24,2.24,0,0,1,3.16,0,3,3,0,0,1,0,4.24l-3.47,3.47a3,3,0,0,1-2.12.88m4-8.25a1.21,1.21,0,0,0-.88.37l-4.54,4.53a1.26,1.26,0,0,0,0,1.76,2,2,0,0,0,2.83,0l3.47-3.46a2,2,0,0,0,0-2.83,1.21,1.21,0,0,0-.88-.37"/></clipPath><clipPath id="clip-path-20"><path class="cls-2" d="M902.47-62.74a2.21,2.21,0,0,1-1.58-.66,3,3,0,0,1,0-4.24l3.47-3.46a3,3,0,0,1,4.24,0,2.23,2.23,0,0,1,0,3.17l-4.54,4.53a2.21,2.21,0,0,1-1.58.66m4-8.24a2,2,0,0,0-1.41.58l-3.47,3.47a2,2,0,0,0,0,2.83,1.26,1.26,0,0,0,1.76,0l4.54-4.54a1.26,1.26,0,0,0,0-1.76,2,2,0,0,0-1.42-.58"/></clipPath><clipPath id="clip-path-21"><path class="cls-2" d="M917.47-48H907.6a.5.5,0,0,1-.5-.5,2.5,2.5,0,0,1,2.5-2.5h5.87a2.5,2.5,0,0,1,2.5,2.5.5.5,0,0,1-.5.5m-9.29-1h8.7a1.5,1.5,0,0,0-1.41-1H909.6a1.51,1.51,0,0,0-1.42,1"/></clipPath><clipPath id="clip-path-22"><path class="cls-1" d="M147.22,12h-2.08v8H142V12h-1.5V9.17H142V7.34A3,3,0,0,1,145.17,4h2.33V6.74h-1.69c-.28,0-.67.15-.67.77V9.17h2.35Z"/></clipPath><clipPath id="clip-path-23"><path class="cls-1" d="M108,7a6.61,6.61,0,0,1-1.89.52,3.32,3.32,0,0,0,1.45-1.82,6.62,6.62,0,0,1-2.09.8,3.28,3.28,0,0,0-5.68,2.24,3.08,3.08,0,0,0,.09.75A9.32,9.32,0,0,1,93.11,6.1a3.29,3.29,0,0,0,1,4.38,3.13,3.13,0,0,1-1.49-.41v0a3.28,3.28,0,0,0,2.64,3.22,3.22,3.22,0,0,1-1.49.06,3.3,3.3,0,0,0,3.07,2.28,6.58,6.58,0,0,1-4.08,1.4A6.79,6.79,0,0,1,92,17a9.34,9.34,0,0,0,14.37-7.87c0-.14,0-.28,0-.42A6.79,6.79,0,0,0,108,7Z"/></clipPath><clipPath id="clip-path-24"><path class="cls-1" d="M61.39,7.85a1.24,1.24,0,1,1,1.23-1.24A1.25,1.25,0,0,1,61.39,7.85ZM56,17.23A5.23,5.23,0,1,1,61.22,12,5.23,5.23,0,0,1,56,17.23ZM61,4.05H51A2.92,2.92,0,0,0,48.07,7V17A2.92,2.92,0,0,0,51,20H61A2.92,2.92,0,0,0,63.93,17V7A2.92,2.92,0,0,0,61,4.05Z"/></clipPath><clipPath id="clip-path-25"><path class="cls-1" d="M56,9a3,3,0,1,0,3,3A3,3,0,0,0,56,9Z"/></clipPath><clipPath id="clip-path-26"><path class="cls-2" d="M6.21,8.16A1.82,1.82,0,0,0,8.1,6.43,1.82,1.82,0,0,0,6.21,4.69a1.83,1.83,0,0,0-1.9,1.74,1.82,1.82,0,0,0,1.9,1.73"/></clipPath><clipPath id="clip-path-27"><rect class="cls-1" x="-145.87" y="-4446.95" width="1440" height="4692"/></clipPath><clipPath id="clip-path-28"><rect class="cls-1" x="4.74" y="9.48" width="3.4" height="9.83"/></clipPath><clipPath id="clip-path-30"><path class="cls-2" d="M12.92,13.84c0-1.12.53-2.23,1.8-2.23s1.58,1.11,1.58,2.21v5.36h3.39V13.6C19.69,9.71,17.4,9,16,9a3.43,3.43,0,0,0-3.07,1.64V9.35H9.52v9.83h3.4Z"/></clipPath><clipPath id="clip-path-32"><path class="cls-2" d="M192.92,12.2c.2-.11.2-.29,0-.4l-8.56-4.75c-.2-.11-.36,0-.36.21v9.48c0,.23.16.32.36.21ZM188,28a16,16,0,1,1,16-16A16,16,0,0,1,188,28Z"/></clipPath></defs><title>icons-social-linkedin</title><g id="Layer_1" data-name="Layer 1"><polygon class="cls-8" points="-289.28 -152.5 -292.85 -156.35 -303.05 -145.35 -308.15 -150.85 -311.72 -147 -303.05 -137.65 -289.28 -152.5"/><g class="cls-9"><rect class="cls-10" x="-457.59" y="-683.72" width="701.29" height="1258.58"/></g><polygon class="cls-11" points="-245.26 -150.3 -247.25 -152.28 -252.92 -146.63 -255.75 -149.46 -257.74 -147.48 -252.92 -142.68 -245.26 -150.3"/><g class="cls-12"><rect class="cls-13" x="-287.5" y="-600" width="375" height="875"/></g><polygon class="cls-11" points="-188.28 -152.5 -191.85 -156.35 -202.05 -145.35 -207.15 -150.85 -210.72 -147 -202.05 -137.65 -188.28 -152.5"/><g class="cls-14"><rect class="cls-13" x="-356.59" y="-683.72" width="701.29" height="1258.58"/></g></g><g id="Layer_2" data-name="Layer 2"><g class="cls-33"><g class="cls-34"><rect class="cls-35" x="-0.69" y="-0.31" width="13.79" height="13.47"/></g></g><g class="cls-36"><g class="cls-34"><rect class="cls-35" x="-0.26" y="4.48" width="13.4" height="19.83"/></g></g><g class="cls-37"><g class="cls-34"><rect class="cls-35" x="4.52" y="4.04" width="20.17" height="20.14"/></g></g></g></svg>