<svg id="Layer_1" data-name="Layer 1" xmlns="http://www.w3.org/2000/svg" xmlns:xlink="http://www.w3.org/1999/xlink" viewBox="0 0 157 32"><defs><style>.cls-1,.cls-2,.cls-3{fill:none;}.cls-2{clip-rule:evenodd;}.cls-3{fill-rule:evenodd;}.cls-4{clip-path:url(#clip-path);}.cls-5{clip-path:url(#clip-path-2);}.cls-6{clip-path:url(#clip-path-3);}.cls-7{clip-path:url(#clip-path-4);}.cls-8{clip-path:url(#clip-path-5);}.cls-9{fill:#241f21;}.cls-10{fill:#e31738;}.cls-11{clip-path:url(#clip-path-6);}.cls-12{clip-path:url(#clip-path-7);}.cls-13{clip-path:url(#clip-path-8);}.cls-14{clip-path:url(#clip-path-10);}.cls-15{clip-path:url(#clip-path-12);}.cls-16{clip-path:url(#clip-path-13);}.cls-17{clip-path:url(#clip-path-14);}.cls-18{clip-path:url(#clip-path-15);}.cls-19{clip-path:url(#clip-path-16);}.cls-20{clip-path:url(#clip-path-17);}.cls-21{clip-path:url(#clip-path-18);}</style><clipPath id="clip-path"><circle class="cls-1" cx="416" cy="-559.5" r="18.92"/></clipPath><clipPath id="clip-path-2"><circle class="cls-1" cx="546" cy="-559.5" r="37.85"/></clipPath><clipPath id="clip-path-3"><path class="cls-2" d="M176.64-175.07h6.29a.78.78,0,0,1,.78.78.78.78,0,0,1-.78.79h-6.29a.78.78,0,0,1-.78-.79A.78.78,0,0,1,176.64-175.07Z"/></clipPath><clipPath id="clip-path-4"><path class="cls-2" d="M179-171.14v-6.29a.78.78,0,0,1,.79-.78.78.78,0,0,1,.78.78v6.29a.78.78,0,0,1-.78.78A.78.78,0,0,1,179-171.14Z"/></clipPath><clipPath id="clip-path-5"><path class="cls-2" d="M124.86-175.29h6.28a.79.79,0,0,1,.79.79.79.79,0,0,1-.79.79h-6.28a.79.79,0,0,1-.79-.79A.79.79,0,0,1,124.86-175.29Z"/></clipPath><clipPath id="clip-path-6"><circle class="cls-1" cx="15.78" cy="74.5" r="12"/></clipPath><clipPath id="clip-path-7"><path class="cls-2" d="M57.54,69a10.31,10.31,0,0,0,2.3-.42,3.53,3.53,0,0,1,1.17,0c.72.27.4.55.55,1.16.2.83.53,1.16.24,2-.39,1.17-.67,1.51.12,2.57a2.34,2.34,0,0,0,.82.89c.39.19.65,0,1,.09a1.83,1.83,0,0,1,1.4,1.4,14.47,14.47,0,0,1,.08,2.47,5,5,0,0,0,1.09,2.43,4.67,4.67,0,0,1,.88,2.6c0,.92,0,1.36.63,2a13,13,0,0,1,1.11-3.91,4.06,4.06,0,0,1,1.49-1.81c.77-.46,1.81-.3,1.79-1.43S71.33,78,70.52,77.7a3.74,3.74,0,0,1-1.78-1.43c-.74-.82-1.35-.52-2.33-.65a7,7,0,0,1-2.21-1c-.77-.39-1.43-1.22-.06-1.26,1,0,.76.67,1.45.91,1.16.4.73-1,.91-1.65.24-.86.63-.84,1.39-1,1-.2,2.86-2.19,1.16-2.71-1-.32-1,.51-1.64.88s-1.53.1-1.31-.71c.79.06,1.62-.79,1.06-1.57a2.3,2.3,0,0,0-2-.33c-.25.17-.23.64-.42.77a2.61,2.61,0,0,1-1.33,0c-.43-.18-.62-.85-1-1.07a2.34,2.34,0,0,0-1-.16c0-.85,0-1.47.85-1.86a10.66,10.66,0,0,1,1.86-.33,5.34,5.34,0,0,0,1.25-.66c1.25-.72,3.84-1.39,4.5.23.28.7.16,1.53.41,2.22s.9,1.34,1.08,2.2.21,1.33,1.22,1.25,1-.87,1.08-1.71c.46,0,.81-.28,1.29-.17a2.48,2.48,0,0,1,.18,1c.51.3,1.34.48,1,1.31-.23.54-.91.43-1.5.58-1.47.35-1.94,1.47-1.08,2.83s1,2.19,2.56,2.76a3.51,3.51,0,0,1,1.72,1c.4.49.36,1.17.68,1.62"/></clipPath><clipPath id="clip-path-8"><path class="cls-2" d="M743.78,65.54a9.17,9.17,0,1,1-9.36,9.16,9.27,9.27,0,0,1,9.36-9.16m0-.84A10,10,0,1,0,754,74.7a10.11,10.11,0,0,0-10.21-10"/></clipPath><clipPath id="clip-path-10"><path class="cls-2" d="M669.78,65.33a9.17,9.17,0,1,1-9.17,9.17,9.19,9.19,0,0,1,9.17-9.17m0-.83a10,10,0,1,0,10,10,10,10,0,0,0-10-10"/></clipPath><clipPath id="clip-path-12"><path class="cls-2" d="M232.64,131.71h6.28a.79.79,0,0,1,0,1.58h-6.28a.79.79,0,0,1,0-1.58Z"/></clipPath><clipPath id="clip-path-13"><path class="cls-2" d="M235,135.64v-6.28a.79.79,0,0,1,1.58,0v6.28a.79.79,0,1,1-1.58,0Z"/></clipPath><clipPath id="clip-path-14"><circle class="cls-1" cx="279.78" cy="132.5" r="11.35"/></clipPath><clipPath id="clip-path-15"><circle class="cls-1" cx="327.78" cy="132.5" r="5.09"/></clipPath><clipPath id="clip-path-16"><polygon class="cls-2" points="108.38 128.8 103.78 133.4 99.18 128.8 97.78 130.2 103.78 136.2 109.78 130.2 108.38 128.8"/></clipPath><clipPath id="clip-path-17"><polygon class="cls-2" points="143.18 136.2 147.78 131.6 152.38 136.2 153.78 134.8 147.78 128.8 141.78 134.8 143.18 136.2"/></clipPath><clipPath id="clip-path-18"><circle class="cls-1" cx="738.78" cy="215.5" r="12"/></clipPath></defs><title>logo-black</title><polygon class="cls-9" points="108.74 15.25 109.65 15.25 111.79 10.57 110.83 10.57 108.74 15.25"/><polygon class="cls-9" points="119.82 15.25 122.45 15.25 120.29 10.57 117.78 10.57 119.82 15.25"/><polygon class="cls-9" points="115.29 0.61 111.27 9.59 112.24 9.59 114.85 3.89 114.87 3.93 114.89 3.89 117.35 9.59 119.83 9.59 115.67 0.61 115.29 0.61"/><path class="cls-9" d="M90.49,4.92h-.66A4,4,0,0,0,88.27,2,4.06,4.06,0,0,0,86,1.42,3,3,0,0,0,84.21,2a2,2,0,0,0-.82,1.61,1.8,1.8,0,0,0,.46,1.19A12.3,12.3,0,0,0,87.07,7c1.16.6,1.91,1,2.24,1.24A4.9,4.9,0,0,1,91.06,10a3.49,3.49,0,0,1,.41,1.63A3.59,3.59,0,0,1,90,14.52a5.06,5.06,0,0,1-3.22,1.05,8.56,8.56,0,0,1-1.17-.07,5.11,5.11,0,0,1-1.5-.44,4.27,4.27,0,0,1-1.58-1.45,5.09,5.09,0,0,1-.79-3h.66a4.61,4.61,0,0,0,.4,2.15,3.58,3.58,0,0,0,1.59,1.48,4.59,4.59,0,0,0,2.16.51,3.43,3.43,0,0,0,2-.59,2,2,0,0,0,.93-1.75,2.56,2.56,0,0,0-1.23-2.07,19.66,19.66,0,0,0-2.49-1.47,18.65,18.65,0,0,1-2.52-1.52,3.66,3.66,0,0,1-1.64-3A3.39,3.39,0,0,1,83,1.63a4.63,4.63,0,0,1,3-1,5.22,5.22,0,0,1,2.82.75A3.82,3.82,0,0,1,90,2.78a6.23,6.23,0,0,1,.53,2.14"/><polygon class="cls-9" points="92.74 0.94 94.84 0.93 100.19 12.12 105.45 0.93 107.55 0.93 107.55 15.25 105.46 15.25 105.46 3.2 99.76 15.25 99.4 15.25 93.7 3.2 93.7 15.25 92.74 15.25 92.74 0.94"/><path class="cls-9" d="M132.54,15.25l-5-6.67H126v6.67h-2.08V1l3.25-.11a11,11,0,0,1,3.48.33,3.9,3.9,0,0,1,1.92,1.27,3.16,3.16,0,0,1,.74,2.09c0,1.92-1.21,3.15-3.64,3.67l5.21,7ZM126,7.9h.61a5.39,5.39,0,0,0,2.9-.7,2.67,2.67,0,0,0,1.35-2.45A2.91,2.91,0,0,0,130,2.56a3.17,3.17,0,0,0-2.28-.82,9.23,9.23,0,0,0-1.71.2Z"/><polygon class="cls-9" points="141.15 1.85 141.15 15.25 139.06 15.25 139.06 1.85 134.13 1.88 134.13 0.93 146.18 0.93 146.18 1.85 141.15 1.85"/><polygon class="cls-9" points="113.16 26.39 111.06 31.07 111.97 31.07 114.11 26.39 113.16 26.39"/><polygon class="cls-9" points="120.1 26.39 122.14 31.07 124.78 31.07 122.61 26.39 120.1 26.39"/><polygon class="cls-9" points="90.44 16.75 86.99 27.76 83.17 16.74 80.93 16.74 86.36 31.39 86.75 31.39 90.1 22.24 93.46 31.39 93.9 31.39 99.15 16.75 98.16 16.74 94.26 27.75 90.82 16.74 90.44 16.75"/><path class="cls-9" d="M109.7,31.07h-9.29V16.75h9.29v.78h-7.18v5.66h6V24h-6v4.72c0,.49,0,.76,0,.81a.85.85,0,0,0,.38.67,2,2,0,0,0,.83.12h6Z"/><path class="cls-9" d="M135.44,31.07h-9.31V16.77l2.09,0V28.52a2.7,2.7,0,0,0,.18,1.2c.13.24.45.39,1,.44h6.38Z"/><polygon class="cls-9" points="132.24 16.75 132.24 17.7 137.18 17.67 137.18 31.07 139.27 31.07 139.27 17.67 144.3 17.67 144.3 16.75 132.24 16.75"/><polygon class="cls-9" points="154.62 16.75 154.62 23.39 147.75 23.39 147.75 16.75 145.65 16.75 145.65 17.04 145.66 31.07 147.75 31.07 147.75 24.17 154.62 24.17 154.62 31.07 156.7 31.07 156.7 30.46 156.69 16.75 154.62 16.75"/><polygon class="cls-9" points="117.17 19.71 117.19 19.75 117.21 19.71 119.67 25.41 122.16 25.41 117.99 16.43 117.61 16.43 113.59 25.41 114.56 25.41 117.17 19.71"/><polygon class="cls-9" points="10.28 0.61 10.28 11.28 1.39 0.61 0.3 0.61 0.3 15.02 1.25 15.02 1.25 3.61 10.84 15.07 11.22 15.07 11.22 0.61 10.28 0.61"/><path class="cls-9" d="M17.17.61a13.28,13.28,0,0,1,2.89.25A4.88,4.88,0,0,1,22.44,2.1a3.2,3.2,0,0,1,1,2.39c0,1.6-.89,2.68-2.68,3.24a4.87,4.87,0,0,1,2.31,1,3.16,3.16,0,0,1,1.06,2.41,3.48,3.48,0,0,1-.75,2.16,4,4,0,0,1-1.87,1.36,11.13,11.13,0,0,1-3.73.47H12.89V.61ZM15,7.15a11.76,11.76,0,0,0,2.08.15c1.86,0,3.07-.46,3.64-1.37a2.9,2.9,0,0,0,.42-1.52A2.64,2.64,0,0,0,19.8,2,5.32,5.32,0,0,0,17,1.33a8,8,0,0,0-2,.23Zm0,7a10.93,10.93,0,0,0,2.51.29,5.15,5.15,0,0,0,2.77-.68,2.62,2.62,0,0,0,1.3-2.35,2.94,2.94,0,0,0-2-2.87A6.71,6.71,0,0,0,17,8a13.44,13.44,0,0,0-1.94.1Z"/><polygon class="cls-9" points="35.14 0.62 27.83 7.63 27.82 0.62 25.72 0.62 25.7 15.16 27.83 15.16 27.83 7.89 36.94 15.16 39.44 15.16 29.94 7.09 36.71 0.62 35.14 0.62"/><path class="cls-10" d="M43,8A1.76,1.76,0,1,1,41.2,6.3,1.73,1.73,0,0,1,43,8"/><path class="cls-9" d="M32.31,17.06a8.38,8.38,0,0,0-3-.39l-3.21.12v14.4h2v-7a11.53,11.53,0,0,0,2.42.29,4.93,4.93,0,0,0,3.17-1A3.57,3.57,0,0,0,35,20.57a3.39,3.39,0,0,0-.73-2.15,4,4,0,0,0-1.91-1.36m-.5,5.79a2.45,2.45,0,0,1-2,.93,10.2,10.2,0,0,1-1.74-.21V17.71a6.58,6.58,0,0,1,1.39-.2,3.18,3.18,0,0,1,1.59.39,3,3,0,0,1,1.47,2.88,3.11,3.11,0,0,1-.72,2.07"/><rect class="cls-9" x="36.34" y="16.67" width="2.04" height="14.53"/><polygon class="cls-9" points="39.78 16.66 39.78 17.6 44.59 17.57 44.59 31.18 46.63 31.18 46.63 17.57 51.53 17.57 51.53 16.66 39.78 16.66"/><path class="cls-9" d="M66,30.29c-.51-.05-.82-.19-1-.43a2.79,2.79,0,0,1-.17-1.18v-12h-2V31.18h9.08l.29-.89Z"/><path class="cls-9" d="M12.66,27.92a8.05,8.05,0,0,1-1.76,1.76,4.86,4.86,0,0,1-2.8.8,5.45,5.45,0,0,1-2.86-.75A5.11,5.11,0,0,1,2.86,26,9.1,9.1,0,0,1,2.75,25c0-.25,0-.5,0-.77a10,10,0,0,1,.67-3.87,4.46,4.46,0,0,1,4.41-3,5,5,0,0,1,2.49.61,7.93,7.93,0,0,1,2.35,2.33l.33-.21a7.45,7.45,0,0,0-2.52-2.75,5.37,5.37,0,0,0-2.82-.71,7.37,7.37,0,0,0-3.7,1,7,7,0,0,0-2.71,2.83A8,8,0,0,0,.3,24.25c0,.26,0,.52,0,.78A6.94,6.94,0,0,0,.48,26,7.06,7.06,0,0,0,1.77,28.8a6.53,6.53,0,0,0,5.54,2.59A6.32,6.32,0,0,0,12,29.51l-.75,1.68h1.08l2.09-4.75L14.6,26H13.53Z"/><polygon class="cls-9" points="19.8 25.96 21.98 31.19 24.64 31.19 22.24 25.96 19.8 25.96"/><polygon class="cls-9" points="17.94 16.63 17.57 16.63 13.94 25.03 15.01 25.03 17.23 20.12 17.24 20.14 17.25 20.12 19.4 25.03 21.82 25.03 17.94 16.63"/><polygon class="cls-9" points="54.68 16.63 54.31 16.63 50.68 25.03 51.75 25.03 53.97 20.12 53.98 20.14 53.99 20.12 56.14 25.03 58.56 25.03 54.68 16.63"/><polygon class="cls-9" points="56.54 25.96 58.73 31.19 61.39 31.19 58.98 25.96 56.54 25.96"/><polygon class="cls-9" points="50.28 25.97 47.98 31.18 49.05 31.18 51.12 26.46 51.34 25.97 50.28 25.97"/><path class="cls-10" d="M77.07,31.39c-.31,0-.56-.11-.56-.25V.86c0-.14.25-.25.56-.25s.56.11.56.25V31.14c0,.14-.25.25-.56.25"/></svg>